<?xml version="1.0" encoding="utf-8"?>
<svg viewBox="0 0 135.93 49.25" xmlns="http://www.w3.org/2000/svg">
  <defs>
    <style>.cls-1{fill:#fdb913}.cls-2{fill:#0a0203}.cls-3{fill:#fff}</style>
  </defs>
  <title>Ресурс 14</title>
  <g id="Слой_2" data-name="Слой 2">
    <g id="Layer_1" data-name="Layer 1">
      <path class="cls-1" d="M0 6.93v13.85l12 6.93 12-6.93V6.93L12 0 0 6.93z"/>
      <path class="cls-2" d="M123.5 20.78V6.93L111.5 0l-12 6.93v13.85l12 6.93 12-6.93zM98.62 20.78V6.93L86.62 0l-12 6.93v13.85l12 6.93 12-6.93zM73.75 20.78V6.93L61.75 0l-12 6.93v13.85l12 6.93 12-6.93zM24.87 6.93v13.85l12 6.93 12-6.93V6.93L36.87 0l-12 6.93zM135.93 42.33V28.47l-12-6.93-11.99 6.93v13.86l11.99 6.92 12-6.92zM111.06 42.33V28.47l-12-6.93-12 6.93v13.86l12 6.92 12-6.92zM86.18 42.33V28.47l-11.99-6.93-12 6.93v13.86l12 6.92 11.99-6.92zM37.31 28.47v13.86l12 6.92 12-6.92V28.47l-12-6.93-12 6.93zM12.44 28.47v13.86l12 6.92 12-6.92V28.47l-12-6.93-12 6.93zM14.09 8.44v4.19a.25.25 0 0 1-.25.25h-3.68a.25.25 0 0 1-.25-.25V8.44a.25.25 0 0 0-.25-.25H7.1a.25.25 0 0 0-.25.25v11.24a.25.25 0 0 0 .25.25h2.55a.25.25 0 0 0 .25-.25v-4a.25.25 0 0 1 .25-.25h3.68a.25.25 0 0 1 .25.25v4a.25.25 0 0 0 .25.25h2.57a.25.25 0 0 0 .25-.25V8.44a.25.25 0 0 0-.25-.25h-2.55a.25.25 0 0 0-.26.25z" style="fill: rgba(108, 204, 245, 0.85);"/>
      <path class="cls-3" d="M37.19 8.05h-.61a5.31 5.31 0 0 0-5.31 5.31v1.42a5.31 5.31 0 0 0 5.31 5.31h.61a5.31 5.31 0 0 0 5.31-5.31v-1.42a5.31 5.31 0 0 0-5.31-5.31zm2.24 6.75A2.41 2.41 0 0 1 37 17.22h-.26a2.41 2.41 0 0 1-2.41-2.41v-1.47a2.41 2.41 0 0 1 2.41-2.41H37a2.41 2.41 0 0 1 2.41 2.41zM117.12 8.19h-2.88a.21.21 0 0 0-.19.11l-2.42 4.63a.15.15 0 0 1-.26 0l-2.43-4.63a.21.21 0 0 0-.19-.11h-2.88a.21.21 0 0 0-.19.31l4.23 7.81a.21.21 0 0 1 0 .1v3.31a.21.21 0 0 0 .21.21h2.65a.21.21 0 0 0 .21-.21V16.5a.21.21 0 0 1 0-.1l4.27-7.9a.21.21 0 0 0-.13-.31zM103.17 31.46v-2.13a.28.28 0 0 0-.28-.28h-7.66a.28.28 0 0 0-.28.28v11.19a.28.28 0 0 0 .28.28h7.66a.28.28 0 0 0 .28-.28v-2.13a.28.28 0 0 0-.28-.28H98.3a.28.28 0 0 1-.28-.28v-1.29a.28.28 0 0 1 .28-.28h3.29a.28.28 0 0 0 .28-.28v-1.9a.28.28 0 0 0-.28-.28H98.3a.28.28 0 0 1-.28-.28V32a.28.28 0 0 1 .28-.28h4.59a.28.28 0 0 0 .28-.26zM119.56 39.13l1.44-1.85a.32.32 0 0 1 .44-.06 4.6 4.6 0 0 0 1.84.89c1.37.22 1.89-.32 2-.73s-.5-.85-.93-.92-1.13-.2-2-.43c-3.34-.87-3.08-4.58-1.08-6.21a5.34 5.34 0 0 1 6.07.28l.21.19a.22.22 0 0 1 0 .3l-1.45 2a.28.28 0 0 1-.4.06 2.68 2.68 0 0 0-1.61-.63c-1 0-1.13.55-1.13.55a.71.71 0 0 0 .53.91c.76.27 1.95.33 2.76.69a3.05 3.05 0 0 1 2.13 3.18 3.64 3.64 0 0 1-2 3.17 6.68 6.68 0 0 1-6.73-.84.37.37 0 0 1-.09-.55z"/>
      <path class="cls-1" d="M29.54 37.3c0 2.79-3 3.94-5 3.84a5.14 5.14 0 0 1-5-4 8.49 8.49 0 0 1 .14-4.51A5.15 5.15 0 0 1 24.32 29a5.56 5.56 0 0 1 4.1 1c.34.25.36.35.11.68-.39.52-.8 1-1.19 1.55-.21.29-.41.31-.7.09a2.6 2.6 0 0 0-2.1-.51 2.28 2.28 0 0 0-2 2.12 8.62 8.62 0 0 0 0 2.4c.35 2 2.55 2.32 3.91 1.33.09-.07.13-.11.15-.36s0-.49 0-.56 0-.15-.16-.16h-1.11a.37.37 0 0 1-.41-.43v-1.38c0-.3.12-.45.43-.45h3.77c.32 0 .42.16.42.46v2.52z"/>
      <path class="cls-3" d="M45.43 35.9l-1.5 4.49c-.05.17-.06.26 0 .31s.13.07.29.07h2.54a.39.39 0 0 0 .43-.34c0-.18.1-.36.15-.54s.13-.45.19-.67a.38.38 0 0 1 .43-.35h3a.36.36 0 0 1 .41.32c.06.28.14.55.22.82l.12.43a.38.38 0 0 0 .4.33h2.59a.31.31 0 0 0 .3-.07v-.29l-.24-.72-.86-2.56-2.52-7.56c-.12-.35-.26-.47-.58-.45s-.62 0-.91 0H48.1a.47.47 0 0 0-.53.36zm3.89-3.27c0-.14.2-.17.24 0l.92 3.37a.2.2 0 0 1-.19.25h-1.68a.2.2 0 0 1-.19-.25s.87-3.23.9-3.37zM66.38 14.64a3.94 3.94 0 0 0-1.06-1.2.36.36 0 0 1-.09-.45 3 3 0 0 0-.15-3.45 3.54 3.54 0 0 0-2.7-1.34H58a.3.3 0 0 0-.3.3v11.14a.3.3 0 0 0 .3.3h5.13a3.65 3.65 0 0 0 2.95-1.52 4 4 0 0 0 .3-3.78zm-5.63-3.5a.2.2 0 0 1 .2-.21h.77a.87.87 0 0 1 .92.89v.32a.79.79 0 0 1-.86.83H61a.21.21 0 0 1-.2-.21zm2.74 5.24a.78.78 0 0 1-.86.8H61a.2.2 0 0 1-.2-.2V15.4a.2.2 0 0 1 .2-.2h1.61a.86.86 0 0 1 .92.86c-.04.06-.04.26-.04.31zM91.66 14.64a3.94 3.94 0 0 0-1.06-1.2.36.36 0 0 1-.09-.45 3 3 0 0 0-.15-3.45 3.54 3.54 0 0 0-2.7-1.34h-4.4a.3.3 0 0 0-.3.3v11.14a.3.3 0 0 0 .3.3h5.13a3.65 3.65 0 0 0 2.95-1.52 4 4 0 0 0 .32-3.78zM86 11.13a.2.2 0 0 1 .2-.21h.8a.87.87 0 0 1 .92.89v.32a.79.79 0 0 1-.86.83h-.83a.21.21 0 0 1-.2-.21zm2.74 5.24a.78.78 0 0 1-.86.8h-1.64A.2.2 0 0 1 86 17v-1.6a.2.2 0 0 1 .2-.2h1.61a.86.86 0 0 1 .92.86c.04.06.04.26.04.31zM80 29.06h-2.28c-.52 0-.62.05-.84.51-.8 1.72-1.68 3.56-2.5 5.27-.06.12-.12.23-.21.38-.08-.15-.14-.25-.19-.36-.8-1.67-1.73-3.54-2.5-5.22-.27-.58-.32-.58-1-.59h-2.1a.25.25 0 0 0-.25.25v11.25a.25.25 0 0 0 .25.25h2.55a.25.25 0 0 0 .25-.25V35c.11 0 .21.19.26.3.64 1.29 1.28 2.58 1.91 3.88a.83.83 0 0 0 .78.56.85.85 0 0 0 .87-.54c.68-1.41 1.38-2.81 2.07-4.21a.13.13 0 0 1 .11-.06v5.63a.25.25 0 0 0 .25.25H80a.25.25 0 0 0 .25-.25V29.32a.25.25 0 0 0-.25-.26z"/>
    </g>
  </g>
</svg>